REM DIRINDEX 1\2,1\3,1\4,1\5\6,1\5\7,1\8
REM DIRNAME folder01,folder02,folder03,folder04,folder05,folder06,folder07,folder08
TITLE ""
FILE "032 【032】Unit2 (0361 institution_0372 clutch).mp3" MP3
  TRACK 01 AUDIO
    TITLE "0:"
    INDEX 01 00:00:00
  TRACK 02 AUDIO
    TITLE "2:cjc115_1198"
    INDEX 01 00:00:07
  TRACK 03 AUDIO
    TITLE "0:"
    INDEX 01 00:01:50
  TRACK 04 AUDIO
    TITLE "3:cjc115_1199"
    INDEX 01 00:01:58
  TRACK 05 AUDIO
    TITLE "0:"
    INDEX 01 00:03:49
  TRACK 06 AUDIO
    TITLE "4:cjc115_1200"
    INDEX 01 00:03:55
  TRACK 07 AUDIO
    TITLE "0:"
    INDEX 01 00:08:01
  TRACK 08 AUDIO
    TITLE "2:cjc115_1201"
    INDEX 01 00:09:10
  TRACK 09 AUDIO
    TITLE "0:"
    INDEX 01 00:10:49
  TRACK 10 AUDIO
    TITLE "3:cjc115_1202"
    INDEX 01 00:10:57
  TRACK 11 AUDIO
    TITLE "0:"
    INDEX 01 00:12:03
  TRACK 12 AUDIO
    TITLE "4:cjc115_1203"
    INDEX 01 00:12:12
  TRACK 13 AUDIO
    TITLE "0:"
    INDEX 01 00:15:64
  TRACK 14 AUDIO
    TITLE "2:cjc115_1204"
    INDEX 01 00:16:73
  TRACK 15 AUDIO
    TITLE "0:"
    INDEX 01 00:18:07
  TRACK 16 AUDIO
    TITLE "3:cjc115_1205"
    INDEX 01 00:18:15
  TRACK 17 AUDIO
    TITLE "0:"
    INDEX 01 00:21:04
  TRACK 18 AUDIO
    TITLE "4:cjc115_1206"
    INDEX 01 00:21:09
  TRACK 19 AUDIO
    TITLE "0:"
    INDEX 01 00:25:66
  TRACK 20 AUDIO
    TITLE "2:cjc115_1207"
    INDEX 01 00:27:00
  TRACK 21 AUDIO
    TITLE "0:"
    INDEX 01 00:28:37
  TRACK 22 AUDIO
    TITLE "3:cjc115_1208"
    INDEX 01 00:28:47
  TRACK 23 AUDIO
    TITLE "0:"
    INDEX 01 00:30:08
  TRACK 24 AUDIO
    TITLE "4:cjc115_1209"
    INDEX 01 00:30:16
  TRACK 25 AUDIO
    TITLE "0:"
    INDEX 01 00:35:41
  TRACK 26 AUDIO
    TITLE "2:cjc115_1210"
    INDEX 01 00:36:50
  TRACK 27 AUDIO
    TITLE "0:"
    INDEX 01 00:37:67
  TRACK 28 AUDIO
    TITLE "3:cjc115_1211"
    INDEX 01 00:38:00
  TRACK 29 AUDIO
    TITLE "0:"
    INDEX 01 00:40:54
  TRACK 30 AUDIO
    TITLE "4:cjc115_1212"
    INDEX 01 00:40:62
  TRACK 31 AUDIO
    TITLE "0:"
    INDEX 01 00:44:54
  TRACK 32 AUDIO
    TITLE "2:cjc115_1213"
    INDEX 01 00:45:63
  TRACK 33 AUDIO
    TITLE "0:"
    INDEX 01 00:46:70
  TRACK 34 AUDIO
    TITLE "3:cjc115_1214"
    INDEX 01 00:47:05
  TRACK 35 AUDIO
    TITLE "0:"
    INDEX 01 00:48:53
  TRACK 36 AUDIO
    TITLE "4:cjc115_1215"
    INDEX 01 00:48:63
  TRACK 37 AUDIO
    TITLE "0:"
    INDEX 01 00:52:53
  TRACK 38 AUDIO
    TITLE "2:cjc115_1216"
    INDEX 01 00:53:62
  TRACK 39 AUDIO
    TITLE "0:"
    INDEX 01 00:55:24
  TRACK 40 AUDIO
    TITLE "3:cjc115_1217"
    INDEX 01 00:55:32
  TRACK 41 AUDIO
    TITLE "0:"
    INDEX 01 00:56:67
  TRACK 42 AUDIO
    TITLE "4:cjc115_1218"
    INDEX 01 00:57:01
  TRACK 43 AUDIO
    TITLE "0:"
    INDEX 01 01:00:19
  TRACK 44 AUDIO
    TITLE "2:cjc115_1219"
    INDEX 01 01:01:33
  TRACK 45 AUDIO
    TITLE "0:"
    INDEX 01 01:02:59
  TRACK 46 AUDIO
    TITLE "3:cjc115_1220"
    INDEX 01 01:02:67
  TRACK 47 AUDIO
    TITLE "0:"
    INDEX 01 01:05:15
  TRACK 48 AUDIO
    TITLE "4:cjc115_1221"
    INDEX 01 01:05:22
  TRACK 49 AUDIO
    TITLE "0:"
    INDEX 01 01:09:40
  TRACK 50 AUDIO
    TITLE "2:cjc115_1222"
    INDEX 01 01:10:47
  TRACK 51 AUDIO
    TITLE "0:"
    INDEX 01 01:11:66
  TRACK 52 AUDIO
    TITLE "3:cjc115_1223"
    INDEX 01 01:12:01
  TRACK 53 AUDIO
    TITLE "0:"
    INDEX 01 01:14:37
  TRACK 54 AUDIO
    TITLE "4:cjc115_1224"
    INDEX 01 01:14:55
  TRACK 55 AUDIO
    TITLE "0:"
    INDEX 01 01:18:02
  TRACK 56 AUDIO
    TITLE "2:cjc115_1225"
    INDEX 01 01:19:13
  TRACK 57 AUDIO
    TITLE "0:"
    INDEX 01 01:20:32
  TRACK 58 AUDIO
    TITLE "3:cjc115_1226"
    INDEX 01 01:20:42
  TRACK 59 AUDIO
    TITLE "0:"
    INDEX 01 01:21:69
  TRACK 60 AUDIO
    TITLE "4:cjc115_1227"
    INDEX 01 01:22:01
  TRACK 61 AUDIO
    TITLE "0:"
    INDEX 01 01:25:70
  TRACK 62 AUDIO
    TITLE "2:cjc115_1228"
    INDEX 01 01:27:03
  TRACK 63 AUDIO
    TITLE "0:"
    INDEX 01 01:28:18
  TRACK 64 AUDIO
    TITLE "3:cjc115_1229"
    INDEX 01 01:28:27
  TRACK 65 AUDIO
    TITLE "0:"
    INDEX 01 01:31:04
  TRACK 66 AUDIO
    TITLE "4:cjc115_1230"
    INDEX 01 01:31:12
  TRACK 67 AUDIO
    TITLE "0:"
    INDEX 01 01:35:20
  TRACK 68 AUDIO
    TITLE "2:cjc115_1231"
    INDEX 01 01:36:27
  TRACK 69 AUDIO
    TITLE "0:"
    INDEX 01 01:37:36
  TRACK 70 AUDIO
    TITLE "3:cjc115_1232"
    INDEX 01 01:37:46
  TRACK 71 AUDIO
    TITLE "0:"
    INDEX 01 01:40:11
  TRACK 72 AUDIO
    TITLE "4:cjc115_1233"
    INDEX 01 01:40:17
  TRACK 73 AUDIO
    TITLE "0:"
    INDEX 01 01:43:64
